<?xml version="1.0" encoding="utf-8"?>
<!-- Generator: Adobe Illustrator 23.0.2, SVG Export Plug-In . SVG Version: 6.00 Build 0)  -->
<svg version="1.1" id="Layer_1" focusable="false" xmlns="http://www.w3.org/2000/svg" xmlns:xlink="http://www.w3.org/1999/xlink"
	 x="0px" y="0px" viewBox="0 0 256 256" style="enable-background:new 0 0 256 256;" xml:space="preserve">
<style type="text/css">
	.st0{fill:#5B7D87;}
	.st1{fill:#FFFFFF;}
</style>
<circle class="st0" cx="128" cy="128" r="127"/>
<path class="st1" d="M212.3,105.7c1.3-1.1,3.3-0.1,3.3,1.6v70c0,9.1-7.4,16.4-16.4,16.4H56.8c-9.1,0-16.4-7.4-16.4-16.4v-69.9
	c0-1.7,2-2.7,3.3-1.6c7.7,6,17.8,13.5,52.7,38.9c7.2,5.3,19.4,16.4,31.6,16.3c12.2,0.1,24.6-11.2,31.6-16.3
	C194.5,119.2,204.6,111.6,212.3,105.7z M128,149.9c7.9,0.1,19.4-10,25.1-14.2c45.4-33,48.9-35.8,59.3-44c2-1.5,3.1-3.9,3.1-6.5v-6.5
	c0-9.1-7.4-16.4-16.4-16.4H56.8c-9.1,0-16.4,7.4-16.4,16.4v6.5c0,2.5,1.2,4.9,3.1,6.5c10.5,8.2,13.9,11.1,59.3,44
	C108.6,139.9,120.1,150,128,149.9L128,149.9z"/>
<path class="st0" d="M127.7,99.9c7.7,0,13.9-6.2,13.9-13.9s-6.2-13.9-13.9-13.9s-13.9,6.2-13.9,13.9S120,99.9,127.7,99.9z
	 M137.4,103.4h-1.8c-2.4,1.1-5.1,1.7-7.9,1.7s-5.5-0.6-7.9-1.7H118c-8,0-14.6,6.5-14.6,14.6v4.5c0,2.9,2.3,5.2,5.2,5.2h38.1
	c2.9,0,5.2-2.3,5.2-5.2V118C151.9,109.9,145.4,103.4,137.4,103.4z"/>
</svg>
